<svg width="634" height="616" viewBox="0 0 634 616" fill="none" xmlns="http://www.w3.org/2000/svg">
<rect x="633" width="615.401" height="633" rx="43.4362" transform="rotate(89.9797 633 0)" fill="black"/>
<path d="M64.8 373C55.3333 373 47.9333 370.533 42.6 365.6C37.4 360.533 34.8 353.533 34.8 344.6V260.8C34.8 252.133 37.3333 245.333 42.4 240.4C47.4667 235.467 54.5333 233 63.6 233H91.6C106.533 233 119.4 235.867 130.2 241.6C141.133 247.2 149.533 255.267 155.4 265.8C161.267 276.333 164.2 288.8 164.2 303.2C164.2 317.6 161.267 330.067 155.4 340.6C149.667 351 141.333 359 130.4 364.6C119.467 370.2 106.533 373 91.6 373H64.8ZM89.6 355.2C106.667 355.2 119.467 350.867 128 342.2C136.667 333.4 141 320.4 141 303.2C141 286 136.667 273 128 264.2C119.333 255.267 106.533 250.8 89.6 250.8H66.8C63.8667 250.8 61.6 251.733 60 253.6C58.4 255.467 57.6 258 57.6 261.2V344.8C57.6 348 58.4 350.533 60 352.4C61.6 354.267 63.8667 355.2 66.8 355.2H89.6ZM257.353 375C242.553 375 229.553 372 218.353 366C207.286 360 198.753 351.533 192.753 340.6C186.753 329.667 183.753 317.133 183.753 303C183.753 288.867 186.753 276.333 192.753 265.4C198.753 254.467 207.286 246 218.353 240C229.553 234 242.553 231 257.353 231C272.153 231 285.086 234 296.153 240C307.353 246 315.953 254.467 321.953 265.4C327.953 276.333 330.953 288.867 330.953 303C330.953 317.133 327.953 329.667 321.953 340.6C315.953 351.533 307.353 360 296.153 366C285.086 372 272.153 375 257.353 375ZM257.353 356.8C272.953 356.8 285.286 352 294.353 342.4C303.42 332.8 307.953 319.667 307.953 303C307.953 286.2 303.286 273.067 293.953 263.6C284.753 254 272.153 249.2 256.153 249.2C246.02 249.2 237.22 251.4 229.753 255.8C222.286 260.2 216.553 266.467 212.553 274.6C208.553 282.733 206.553 292.2 206.553 303C206.553 314.067 208.62 323.667 212.753 331.8C216.886 339.8 222.753 346 230.353 350.4C237.953 354.667 246.953 356.8 257.353 356.8ZM397.069 375C393.602 375 390.802 374.067 388.669 372.2C386.669 370.333 385.669 367.733 385.669 364.4V250.8H344.669C341.202 250.8 338.535 250.067 336.669 248.6C334.802 247 333.869 244.8 333.869 242C333.869 239.067 334.802 236.867 336.669 235.4C338.535 233.8 341.202 233 344.669 233H449.469C452.935 233 455.602 233.8 457.469 235.4C459.469 236.867 460.469 239.067 460.469 242C460.469 244.8 459.469 247 457.469 248.6C455.602 250.067 452.935 250.8 449.469 250.8H408.469V364.4C408.469 367.6 407.402 370.2 405.269 372.2C403.269 374.067 400.535 375 397.069 375ZM478.789 374.8C475.322 374.8 472.589 373.867 470.589 372C468.589 370.133 467.589 367.533 467.589 364.2V291.4C467.589 272.467 472.989 257.667 483.789 247C494.589 236.333 509.589 231 528.789 231C541.322 231 552.189 233.467 561.389 238.4C570.589 243.2 577.589 250.133 582.389 259.2C587.322 268.267 589.789 279 589.789 291.4V364.2C589.789 367.533 588.789 370.133 586.789 372C584.789 373.867 582.056 374.8 578.589 374.8C575.122 374.8 572.322 373.867 570.189 372C568.056 370 566.989 367.4 566.989 364.2V327.4H490.389V364.2C490.389 367.4 489.322 370 487.189 372C485.056 373.867 482.256 374.8 478.789 374.8ZM566.989 309.6V290.8C566.989 277.2 563.722 266.867 557.189 259.8C550.789 252.733 541.322 249.2 528.789 249.2C516.122 249.2 506.522 252.733 499.989 259.8C493.589 266.733 490.389 277.067 490.389 290.8V309.6H566.989Z" fill="#00FFF0"/>
</svg>
