<svg width="506" height="318" viewBox="0 0 506 318" fill="none" xmlns="http://www.w3.org/2000/svg">
<rect width="505.102" height="318" rx="43.4362" fill="black"/>
<path d="M57.2887 216.034C49.8137 216.034 43.9705 214.086 39.7592 210.191C35.6532 206.19 33.6002 200.663 33.6002 193.609V127.439C33.6002 120.596 35.6006 115.227 39.6013 111.331C43.602 107.436 49.182 105.488 56.3411 105.488H78.4503C90.2419 105.488 100.402 107.752 108.929 112.279C117.563 116.701 124.195 123.07 128.828 131.387C133.46 139.705 135.776 149.549 135.776 160.919C135.776 172.29 133.46 182.133 128.828 190.451C124.301 198.663 117.721 204.98 109.087 209.401C100.454 213.823 90.2419 216.034 78.4503 216.034H57.2887ZM76.8711 201.979C90.3472 201.979 100.454 198.557 107.192 191.714C114.036 184.765 117.457 174.5 117.457 160.919C117.457 147.338 114.036 137.073 107.192 130.124C100.349 123.07 90.2419 119.543 76.8711 119.543H58.8679C56.5517 119.543 54.7619 120.28 53.4985 121.754C52.2351 123.228 51.6034 125.228 51.6034 127.755V193.767C51.6034 196.294 52.2351 198.294 53.4985 199.768C54.7619 201.242 56.5517 201.979 58.8679 201.979H76.8711ZM209.331 217.613C197.645 217.613 187.38 215.245 178.536 210.507C169.798 205.769 163.06 199.084 158.322 190.451C153.585 181.818 151.216 171.921 151.216 160.761C151.216 149.601 153.585 139.705 158.322 131.072C163.06 122.439 169.798 115.753 178.536 111.015C187.38 106.278 197.645 103.909 209.331 103.909C221.018 103.909 231.23 106.278 239.968 111.015C248.812 115.753 255.603 122.439 260.341 131.072C265.078 139.705 267.447 149.601 267.447 160.761C267.447 171.921 265.078 181.818 260.341 190.451C255.603 199.084 248.812 205.769 239.968 210.507C231.23 215.245 221.018 217.613 209.331 217.613ZM209.331 203.242C221.649 203.242 231.388 199.452 238.547 191.872C245.706 184.292 249.286 173.921 249.286 160.761C249.286 147.496 245.601 137.125 238.231 129.65C230.967 122.07 221.018 118.28 208.384 118.28C200.382 118.28 193.434 120.017 187.538 123.491C181.642 126.966 177.115 131.914 173.957 138.336C170.798 144.758 169.219 152.233 169.219 160.761C169.219 169.5 170.851 177.08 174.115 183.502C177.378 189.819 182.011 194.715 188.012 198.189C194.013 201.558 201.119 203.242 209.331 203.242ZM319.653 217.613C316.916 217.613 314.705 216.876 313.02 215.402C311.441 213.929 310.651 211.876 310.651 209.243V119.543H278.277C275.54 119.543 273.434 118.964 271.96 117.806C270.486 116.543 269.749 114.806 269.749 112.595C269.749 110.278 270.486 108.541 271.96 107.383C273.434 106.12 275.54 105.488 278.277 105.488H361.029C363.766 105.488 365.872 106.12 367.346 107.383C368.925 108.541 369.715 110.278 369.715 112.595C369.715 114.806 368.925 116.543 367.346 117.806C365.872 118.964 363.766 119.543 361.029 119.543H328.655V209.243C328.655 211.77 327.812 213.823 326.128 215.402C324.549 216.876 322.39 217.613 319.653 217.613ZM384.18 217.455C381.443 217.455 379.285 216.719 377.706 215.245C376.126 213.771 375.337 211.718 375.337 209.086V151.602C375.337 136.652 379.601 124.965 388.129 116.543C396.656 108.12 408.501 103.909 423.661 103.909C433.558 103.909 442.138 105.857 449.403 109.752C456.667 113.542 462.194 119.017 465.985 126.176C469.88 133.335 471.828 141.81 471.828 151.602V209.086C471.828 211.718 471.038 213.771 469.459 215.245C467.88 216.719 465.721 217.455 462.984 217.455C460.247 217.455 458.036 216.719 456.351 215.245C454.667 213.665 453.825 211.612 453.825 209.086V180.028H393.34V209.086C393.34 211.612 392.498 213.665 390.813 215.245C389.129 216.719 386.918 217.455 384.18 217.455ZM453.825 165.973V151.128C453.825 140.389 451.245 132.23 446.086 126.65C441.033 121.07 433.558 118.28 423.661 118.28C413.659 118.28 406.079 121.07 400.92 126.65C395.867 132.124 393.34 140.284 393.34 151.128V165.973H453.825Z" fill="#00FFF0"/>
</svg>
